<svg viewBox = "0 0 48 48" width="48" height="48" xmlns="http://www.w3.org/2000/svg"><g transform="matrix(1 0 0 1 24 24)"  ><g style=""   ><g transform="matrix(1 0 0 1 0 -0.01)" id="Your_Icons"  ><path style="stroke: none; stroke-width: 1; stroke-dasharray: none; stroke-linecap: butt; stroke-dashoffset: 0; stroke-linejoin: miter; stroke-miterlimit: 4; fill: rgb(255,255,255); fill-rule: nonzero; opacity: 1;"  transform=" translate(-24, -23.99)" d="M 41.62 22.21 L 39.28 18 L 39.28 18 L 40.85 14.8 C 41.56875568124076 13.314070288043366 40.95209136304475 11.526637481678137 39.47 10.8 L 29.7 6.27 C 28.360346498844173 5.628837555764417 26.752851459988335 6.119775229793362 26 7.400000000000002 L 23.83 11 L 21.64 7.4 C 21.115620574492816 6.5360973614930735 20.180576165316108 6.0061126761297565 19.17 6 C 18.755188047738837 6.002220901043614 18.345787272002447 6.094336075584303 17.970000000000002 6.27 L 8.24 10.82 C 6.7541143885630355 11.542973330001542 6.1326369045724185 13.33139774436303 6.850000000000001 14.82 L 8.43 18 L 8.43 18 L 6.51 21.39 C 5.9910443746549324 22.317875069080696 5.862820481052822 23.414172552306525 6.153648269829063 24.436760583810084 C 6.444476058605303 25.45934861531364 7.130427102817669 26.324091758427095 8.059999999999999 26.84 L 8.39 27.02 L 8.39 31.85 C 8.943925067950236 30.43167268623416 10.01637773513392 29.27699864789973 11.39 28.62 C 12.20097404978563 28.216002735557996 13.09397698235987 28.003871770731934 14 28 C 15.897362569181318 28.003909722154916 17.681070902758037 28.905034722277875 18.809999999999995 30.43 C 18.968469093111484 30.650214574308755 19.11211932151172 30.880723080346343 19.24 31.119999999999997 C 19.24 31.19 19.33 31.26 19.369999999999997 31.34 C 19.5265737220977 31.662349730150364 19.656993376833046 31.99675910126664 19.759999999999998 32.339999999999996 C 19.921418568287443 32.878471384631 20.00229393500837 33.43785933778406 20 33.99999999999999 C 20.000093113192122 36.34212509398247 18.63733718218985 38.47021100342727 16.51 39.45 L 20.74 41.34 C 22.709590203483646 42.21959837332694 24.96040979651635 42.21959837332694 26.93 41.34 L 36.93 36.85 C 38.341250213919544 36.19688277465214 39.24607258915354 34.785047861571506 39.25 33.230000000000004 L 39.25 26.94 L 40.37 26.330000000000002 C 41.09102704755033 25.958365197295752 41.63082964685074 25.310589186396577 41.86633560991566 24.534361532134607 C 42.101841572980575 23.758133877872638 42.01297607940309 22.91962118830905 41.62 22.21 Z M 23.819999999999997 25.92 L 23.819999999999997 25.92 Z M 24.819999999999997 25.400000000000002 L 24.819999999999997 13.48 L 36.879999999999995 19.240000000000002 Z M 25.819999999999997 11.590000000000002 L 27.729999999999997 8.440000000000001 C 27.88682073261667 8.168376453514833 28.176357638467216 8.000749823811885 28.49 8 C 28.614373047502614 8.000321286238233 28.73719657691438 8.02761540388529 28.849999999999998 8.08 L 38.589999999999996 12.629999999999999 C 38.815548446626366 12.738868261501256 38.98832616507908 12.933243194760559 39.06999999999999 13.169999999999998 C 39.16090027863949 13.444627774854936 39.1356119026053 13.744475662117512 39 14 L 37.37 17.3 L 25.83 11.74 Z M 8.6 13.17 C 8.681673834920915 12.933243194760559 8.854451553373629 12.738868261501256 9.08 12.629999999999999 L 18.82 8.079999999999998 C 18.92963990091158 8.028717389904648 19.04896804762472 8.001442384941644 19.17 8 C 19.483642361532784 8.000749823811883 19.77317926738333 8.168376453514831 19.930000000000003 8.44 L 21.830000000000002 11.59 L 21.830000000000002 11.74 L 10.28 17.26 L 8.65 14 C 8.513645682659403 13.743706895620637 8.49539879120755 13.440808497519908 8.6 13.17 Z M 22.83 13.48 L 22.83 25.41 L 10.77 19.24 Z M 14 26 C 13.140028147726166 25.998754087212625 12.285565198688335 26.137224367491484 11.470000000000002 26.41 L 9 25.08 C 8.539383744655101 24.83552186806599 8.199497016773881 24.412471366341492 8.06 23.909999999999997 C 7.907657437476382 23.39027342671928 7.972607279425081 22.83098312104992 8.24 22.359999999999996 L 9.18 20.679999999999996 L 21.810000000000002 27.139999999999997 L 21.810000000000002 27.429999999999996 L 20.900000000000002 29.309999999999995 C 20.83961442673255 29.428997109404435 20.76936893384052 29.542727907420097 20.69 29.649999999999995 C 19.219986346576235 27.381090748209086 16.703483594748732 26.008110920978837 13.999999999999996 26 Z M 20.28 39 C 21.403470269214083 37.57645495369845 22.00994718902092 35.81344065193439 22 34 C 22.002438139370046 33.251616180152745 21.894613962863275 32.506955461152835 21.68 31.79 C 21.667996946358873 31.728801126625882 21.65128047039726 31.668621813164076 21.63 31.61 C 22.11478856659946 31.228711267926926 22.507786333047623 30.743444460660502 22.779999999999998 30.189999999999998 L 22.779999999999998 30.069999999999997 L 22.779999999999998 39.9 C 22.342033814293185 39.82357662614588 21.91537450324102 39.69255526290939 21.509999999999998 39.51 Z M 37.28 33.28 C 37.261710195727375 34.0246435010715 36.818688310585856 34.69306248567099 36.14 35 L 26.14 39.49 C 25.731675990417607 39.67396123385727 25.30152966843083 39.805021441337615 24.86 39.88 L 24.86 30.07 C 25.46545958754011 31.38104176449902 26.730575259753298 32.26394726383813 28.169999999999998 32.38 L 28.459999999999997 32.38 C 29.10890723945857 32.38126722852629 29.746797653706437 32.21231247015794 30.31 31.890000000000004 L 37.31 28.060000000000002 Z M 40 24 C 39.921833928126226 24.243027555257356 39.753680638754155 24.446958140240504 39.53 24.57 L 39.480000000000004 24.57 L 29.27 30.14 C 29.007006347223715 30.286029248533307 28.71081050817763 30.36180027712649 28.41 30.36 C 27.698218473090655 30.357486043227066 27.051730915805155 29.944668687370058 26.75 29.3 L 25.83 27.43 L 25.83 27.14 L 38.47 20.68 L 39.87 23.189999999999998 C 40.0202922750935 23.43160832742521 40.06713834841608 23.723495399665843 40 24 Z" stroke-linecap="round" /></g><g transform="matrix(1 0 0 1 -10 10)" id="Your_Icons"  ><path style="stroke: none; stroke-width: 1; stroke-dasharray: none; stroke-linecap: butt; stroke-dashoffset: 0; stroke-linejoin: miter; stroke-miterlimit: 4; fill: rgb(0,166,81); fill-rule: nonzero; opacity: 1;"  transform=" translate(-14, -34)" d="M 14 26 C 9.581722001353652 26 6 29.581722001353654 6 34 C 6 38.418277998646346 9.581722001353652 42 14 42 C 18.418277998646346 42 22 38.418277998646346 22 34 C 22 29.581722001353654 18.418277998646346 26 14 26 Z" stroke-linecap="round" /></g><g transform="matrix(1 0 0 1 -10 10)" id="Your_Icons"  ><path style="stroke: none; stroke-width: 1; stroke-dasharray: none; stroke-linecap: butt; stroke-dashoffset: 0; stroke-linejoin: miter; stroke-miterlimit: 4; fill: rgb(255,255,255); fill-rule: nonzero; opacity: 1;"  transform=" translate(-14, -34)" d="M 16.5 33 L 15 33 L 15 31.5 C 15 30.947715250169207 14.552284749830793 30.5 14 30.5 C 13.447715250169207 30.5 13 30.947715250169207 13 31.5 L 13 33 L 11.5 33 C 10.947715250169207 33 10.5 33.4477152501692 10.5 34 C 10.5 34.5522847498308 10.947715250169207 35 11.5 35 L 13 35 L 13 36.5 C 13 37.0522847498308 13.447715250169207 37.5 14 37.5 C 14.552284749830793 37.5 15 37.0522847498308 15 36.5 L 15 35 L 16.5 35 C 17.052284749830793 35 17.5 34.5522847498308 17.5 34 C 17.5 33.4477152501692 17.052284749830793 33 16.5 33 Z" stroke-linecap="round" /></g></g></g></svg>